<svg id="svg" xmlns="http://www.w3.org/2000/svg" xmlns:xlink="http://www.w3.org/1999/xlink" width="400" height="400" viewBox="0, 0, 400,400"><g id="svgg"><path id="path0" d="M345.274 22.704 C 339.356 23.575,333.152 26.005,327.230 29.771 C 319.414 34.740,199.755 154.928,192.750 164.844 C 170.836 195.864,162.329 240.901,176.633 250.164 C 189.500 258.495,231.157 248.155,256.815 230.262 C 268.475 222.131,390.981 99.136,394.730 91.797 C 412.752 56.515,384.425 16.940,345.274 22.704 M360.396 56.057 C 367.740 60.361,370.206 70.954,365.458 77.801 C 362.046 82.721,245.463 198.539,239.453 202.979 C 229.779 210.126,208.548 219.580,204.355 218.608 C 201.609 217.972,209.762 197.400,217.174 186.263 C 223.039 177.451,343.439 56.749,348.071 55.038 C 351.766 53.673,357.077 54.112,360.396 56.057 M63.672 65.995 C 34.585 71.366,11.821 92.124,2.510 121.767 L 0.391 128.516 0.179 233.119 C -0.007 325.020,0.112 338.303,1.165 342.494 C 7.130 366.236,31.714 381.776,55.794 377.027 C 67.272 374.763,72.261 371.672,89.517 356.136 L 99.736 346.934 185.220 346.656 C 261.054 346.409,271.276 346.234,275.781 345.103 C 305.603 337.620,326.601 317.829,335.243 289.063 C 337.036 283.093,338.508 235.694,337.128 228.340 C 334.991 216.950,317.810 213.559,309.602 222.908 C 306.393 226.562,306.363 226.814,305.990 253.125 C 305.470 289.781,297.362 304.276,272.656 312.713 L 267.578 314.447 177.734 314.841 L 87.891 315.234 85.207 317.149 C 83.731 318.201,76.875 324.130,69.972 330.323 C 53.814 344.822,52.531 345.677,46.948 345.677 C 39.284 345.677,33.476 340.594,31.997 332.593 C 30.408 323.999,31.445 137.224,33.112 131.641 C 37.748 116.117,48.796 104.509,64.453 98.712 C 68.121 97.354,72.790 97.242,141.078 96.875 L 213.796 96.484 217.579 94.141 C 228.237 87.539,227.338 71.546,216.016 66.320 C 211.978 64.457,73.600 64.161,63.672 65.995 M71.484 159.805 C 58.209 166.780,59.705 185.905,73.828 189.763 C 78.055 190.917,125.070 190.917,129.297 189.763 C 142.239 186.227,144.931 170.177,134.058 161.373 L 131.107 158.984 102.468 158.779 C 77.636 158.601,73.516 158.737,71.484 159.805 M71.484 222.305 C 58.209 229.280,59.705 248.405,73.828 252.263 C 78.055 253.417,125.070 253.417,129.297 252.263 C 142.239 248.727,144.931 232.677,134.058 223.873 L 131.107 221.484 102.468 221.279 C 77.636 221.101,73.516 221.237,71.484 222.305 " stroke="none" fill="#000000" fill-rule="evenodd"></path></g></svg>